<?xml version="1.0" encoding="utf-8"?>
<!-- Generator: Adobe Illustrator 17.0.0, SVG Export Plug-In . SVG Version: 6.00 Build 0)  -->
<!DOCTYPE svg PUBLIC "-//W3C//DTD SVG 1.1//EN" "http://www.w3.org/Graphics/SVG/1.1/DTD/svg11.dtd">
<svg version="1.1" xmlns="http://www.w3.org/2000/svg" xmlns:xlink="http://www.w3.org/1999/xlink" x="0px" y="0px" width="430px"
	 height="430px" viewBox="0 0 125 125" enable-background="new 0 0 125 125" xml:space="preserve">
<g id="layer10">
	<path fill-rule="evenodd" clip-rule="evenodd" fill="#007ACC" d="M3.72,53.356c0.615,9.346,18.849,20.613,24.248,24.161
		c1.448,0.953,2.915,1.876,4.402,2.77c6.105,3.667,15.012,8.293,23.732,10.092c-0.304-1.126-0.534-2.295-0.698-3.49
		c-8.812-1.755-17.847-6.443-24.018-10.151c-1.487-0.894-2.954-1.817-4.402-2.77C22.255,70.861,7.679,61.83,3.72,53.356z"/>
</g>
<g id="layer9">
	<path fill-rule="evenodd" clip-rule="evenodd" fill="#007ACC" d="M35.29,45.769c19.558,1.777,42.19,7.103,42.284,17.801
		c0.263,30.165-27.308,20.972-48.417,7.094C-17.229,40.168,19.956,44.376,35.29,45.769z"/>
</g>
<g id="layer8">
	<path fill-rule="evenodd" clip-rule="evenodd" fill="#007ACC" d="M72.811,62.734c9.701-1.021,13.946,12.121,13.68,24.27
		c-0.419,19.179-18.536,27.735-26.299,3.275C56.24,77.827,62.375,63.833,72.811,62.734z"/>
</g>
<g id="layer7">
	<path fill="#B4D8CC" d="M51.477,44.458c-4.424-2.273-10.611-6.74-15.368-11.727c-3.562-3.734-6.31-7.741-6.865-11.285
		c-0.041-0.261-0.278-0.445-0.541-0.417l-0.176,0.018c-0.141,0.014-0.257,0.079-0.343,0.191c-0.086,0.112-0.119,0.241-0.097,0.38
		c0.596,3.812,3.464,8.032,7.175,11.921c4.847,5.08,11.161,9.637,15.683,11.962c0.122,0.063,0.251,0.073,0.383,0.029
		c0.132-0.043,0.229-0.128,0.29-0.252l0.078-0.158C51.816,44.876,51.718,44.582,51.477,44.458L51.477,44.458z M58.318,44.258
		c-1.251-3.469-1.616-8.562-0.963-13.887c0.596-4.867,2.045-9.912,4.446-14.074c0.136-0.235,0.057-0.536-0.175-0.675l-0.151-0.091
		c-0.119-0.071-0.247-0.09-0.38-0.055c-0.134,0.034-0.236,0.113-0.305,0.233c-2.486,4.309-3.984,9.513-4.598,14.519
		c-0.674,5.497-0.285,10.789,1.029,14.432c0.047,0.132,0.137,0.227,0.264,0.284c0.128,0.057,0.259,0.061,0.389,0.008l0.164-0.066
		C58.284,44.787,58.409,44.509,58.318,44.258z"/>
</g>
<g id="layer6">
	<path fill-rule="evenodd" clip-rule="evenodd" fill="#007ACC" d="M116.47,21.038c-1.49,7.022-19.151,30.274-25.876,34.644
		c5.727-1.871,28.061,0.944,25.018,15.284c-3.701,17.439-56.253,11.518-61.547-2.587C45.427,45.366,121.861-4.365,116.47,21.038z"/>
</g>
<g id="layer5">
	<path fill-rule="evenodd" clip-rule="evenodd" fill="#007ACC" d="M72.913,79.535c-9.327-2.279-16.992-6.213-18.848-11.157
		c-1.947-5.186,0.437-11.732,5.221-18.466c10.409,2.946,18.232,7.377,18.287,13.657C77.641,71.261,75.896,76.387,72.913,79.535z"/>
</g>
<g id="layer4_1_">
	<path fill-rule="evenodd" clip-rule="evenodd" fill="#007ACC" d="M86.307,81.558c-9.805-0.621-19.814-3.128-26.125-6.9
		c2.059-6.407,6.633-11.292,12.629-11.923C81.067,61.865,85.372,71.253,86.307,81.558z"/>
</g>
<g id="layer3">
	<path fill-rule="evenodd" clip-rule="evenodd" fill="#007ACC" d="M77.57,63.494l0.003,0.076
		c0.142,16.311-7.858,21.109-18.571,19.886c-0.404-10.27,5.259-19.822,13.808-20.722C74.577,62.549,76.16,62.833,77.57,63.494z"/>
</g>
<g id="layer2_1_">
	<path fill-rule="evenodd" clip-rule="evenodd" fill="#007ACC" d="M77.57,63.494l0.003,0.076c0.002,0.241,0.001,0.477,0,0.713v0.042
		l-0.001,0.101l-0.007,0.555l-0.001,0.083l-0.003,0.085l-0.013,0.437l-0.015,0.389l-0.001,0.027l-0.017,0.333L77.5,66.602
		l-0.003,0.061l-0.022,0.326l-0.003,0.046l-0.018,0.243l-0.002,0.032l-0.027,0.319l-0.003,0.034l-0.022,0.252l-0.003,0.029
		l-0.032,0.311l-0.008,0.075l-0.053,0.457l-0.01,0.08l-0.036,0.291l-0.001,0.008l-0.042,0.297l-0.016,0.108l-0.072,0.468
		l-0.001,0.007l-0.048,0.285c-0.05,0.285-0.104,0.565-0.161,0.839l-0.057,0.272l-0.055,0.247l-0.005,0.022l-0.062,0.266
		l-0.007,0.029l-0.097,0.382l-0.042,0.16l-0.056,0.205l-0.072,0.252l-0.012,0.04l-0.115,0.379l-0.045,0.141l-0.102,0.31
		l-0.074,0.215l-0.12,0.332l-0.018,0.05c-0.054,0.145-0.109,0.288-0.166,0.429l-0.001,0.002c-0.752,1.869-1.731,3.4-2.896,4.63
		c-4.906-1.199-9.35-2.857-12.732-4.877c2.059-6.407,6.633-11.293,12.63-11.924C74.577,62.549,76.16,62.833,77.57,63.494z"/>
</g>
<g id="layer1_1_">
	<path fill-rule="evenodd" clip-rule="evenodd" fill="#007ACC" d="M103.971,52.331c7.605-9.047,15.789-21.043,16.955-26.527
		c0.475-2.233,0.545-4.589-0.246-6.66c-0.031,0.909-0.154,1.822-0.344,2.717c-1.31,6.158-11.465,20.524-19.717,29.711
		C101.738,51.769,102.86,52.025,103.971,52.331L103.971,52.331z M67.928,107.653c9.505,7.779,25.079,0.612,25.667-18.055
		c13.072-0.448,24.521-4.635,26.481-13.863c0.54-2.547,0.498-5.081-0.227-7.469c0.009,1.162-0.112,2.343-0.363,3.527
		c-2.087,9.819-14.92,13.936-29.021,13.908C90.372,90.812,88.332,114.484,67.928,107.653z"/>
	<g>
	</g>
	<g>
	</g>
	<g>
	</g>
	<g>
	</g>
	<g>
	</g>
	<g>
	</g>
</g>
</svg>
